HIERARCHY
ROOT Hips
{
    OFFSET 0.000000 0.000000 0.000000
    CHANNELS 6 Xposition Yposition Zposition Zrotation Xrotation Yrotation
    JOINT Spine
    {
        OFFSET -0.000000 0.081343 0.000000
        CHANNELS 3 Zrotation Xrotation Yrotation
        JOINT Spine1
        {
            OFFSET -0.000000 0.243280 0.000000
            CHANNELS 3 Zrotation Xrotation Yrotation
            JOINT Neck
            {
                OFFSET -0.000000 0.242281 0.022026
                CHANNELS 3 Zrotation Xrotation Yrotation
                JOINT Head
                {
                    OFFSET -0.000000 0.149025 -0.021289
                    CHANNELS 3 Zrotation Xrotation Yrotation
                    End Site
                    {
                        OFFSET -0.000000 0.198396 0.000000
                    }
                }
            }
            JOINT LeftShoulder
            {
                OFFSET 0.039707 0.224479 -0.002125
                CHANNELS 3 Zrotation Xrotation Yrotation
                JOINT LeftArm
                {
                    OFFSET 0.116942 0.000000 0.000000
                    CHANNELS 3 Zrotation Xrotation Yrotation
                    JOINT LeftForeArm
                    {
                        OFFSET 0.282002 0.000000 0.000000
                        CHANNELS 3 Zrotation Xrotation Yrotation
                        JOINT LeftHand
                        {
                            OFFSET 0.358743 0.000000 0.000000
                            CHANNELS 3 Zrotation Xrotation Yrotation
                            End Site
                            {
                                OFFSET 0.148797 0.000000 0.000000
                            }
                        }
                    }
                }
            }
            JOINT RightShoulder
            {
                OFFSET -0.039404 0.224479 -0.002125
                CHANNELS 3 Zrotation Xrotation Yrotation
                JOINT RightArm
                {
                    OFFSET -0.116942 0.000000 0.000000
                    CHANNELS 3 Zrotation Xrotation Yrotation
                    JOINT RightForeArm
                    {
                        OFFSET -0.282002 0.000000 0.000000
                        CHANNELS 3 Zrotation Xrotation Yrotation
                        JOINT RightHand
                        {
                            OFFSET -0.358743 0.000000 0.000000
                            CHANNELS 3 Zrotation Xrotation Yrotation
                            End Site
                            {
                                OFFSET -0.148797 0.000000 0.000000
                            }
                        }
                    }
                }
            }
        }
    }
    JOINT LeftUpLeg
    {
        OFFSET 0.099198 0.000000 0.000000
        CHANNELS 3 Zrotation Xrotation Yrotation
        JOINT LeftLeg
        {
            OFFSET -0.000000 -0.332973 0.000000
            CHANNELS 3 Zrotation Xrotation Yrotation
            JOINT LeftFoot
            {
                OFFSET -0.000000 -0.491254 0.000000
                CHANNELS 3 Zrotation Xrotation Yrotation
                JOINT LeftToeBase
                {
                    OFFSET -0.000000 -0.064479 0.148797
                    CHANNELS 3 Zrotation Xrotation Yrotation
                    End Site
                    {
                        OFFSET -0.000000 0.000000 0.039679
                    }
                }
            }
        }
    }
    JOINT RightUpLeg
    {
        OFFSET -0.099198 0.000000 0.000000
        CHANNELS 3 Zrotation Xrotation Yrotation
        JOINT RightLeg
        {
            OFFSET -0.000000 -0.332973 0.000000
            CHANNELS 3 Zrotation Xrotation Yrotation
            JOINT RightFoot
            {
                OFFSET -0.000000 -0.491254 0.000000
                CHANNELS 3 Zrotation Xrotation Yrotation
                JOINT RightToeBase
                {
                    OFFSET -0.000000 -0.064479 0.148797
                    CHANNELS 3 Zrotation Xrotation Yrotation
                    End Site
                    {
                        OFFSET -0.000000 0.000000 0.039679
                    }
                }
            }
        }
    }
}
MOTION
Frames:    4
Frame Time:    0.010000
0.063191    0.845243    -0.988156    -2.997222    -3.385525    -67.555901    -3.477582    2.690572    -9.335874    -7.015793    8.917760    -2.591108    10.916952    22.190166    22.012205    -20.237644    -11.307186    18.851578    -3.395172    21.153454    -14.664767    -4.556388    22.425970    -45.925701    25.257183    21.375181    -57.201118    40.207821    24.966602    -27.168161    4.633455    23.455383    7.852828    45.438194    37.599430    15.221512    -1.356598    -8.433300    51.656628    -31.154554    -12.176667    15.895926    20.152225    -16.472441    16.760590    -15.404016    34.131805    6.094395    2.036551    -12.805974    20.956945    0.000000    0.000000    0.000000    -13.052262    -16.385864    -15.587189    -0.610630    21.614418    13.032653    14.930358    5.371633    33.254715    0.000000    0.000000    0.000000    
0.063328    0.844955    -0.988807    -3.009149    -3.399017    -67.671112    -3.582673    2.647101    -9.301032    -7.038187    8.940211    -2.576944    10.233072    21.012497    22.138155    -17.954424    -9.739408    19.599651    -3.238565    21.131102    -14.757693    -4.852128    22.186602    -45.778328    25.236732    21.549150    -57.186096    40.296291    25.085695    -27.205656    4.820694    23.494862    7.894557    45.243507    37.833385    15.417073    0.293217    -10.091535    52.035736    -30.381561    -14.388891    15.569257    20.215492    -16.484428    16.873209    -15.384074    34.201366    6.088379    1.948769    -12.776238    21.006683    0.000000    0.000000    0.000000    -13.044172    -16.505400    -15.482906    -0.557971    21.744600    13.030016    14.930358    5.371633    33.254715    0.000000    0.000000    0.000000    
0.063426    0.844660    -0.989406    -3.036869    -3.423109    -67.768234    -3.565451    2.636927    -9.307308    -6.971054    8.981997    -2.581299    10.989733    22.064919    22.111408    -20.344954    -11.084019    18.960737    -3.456784    21.047684    -14.533377    -4.739981    22.191975    -45.792076    25.344488    21.509733    -57.138638    40.403725    25.042418    -27.267408    4.704009    23.526827    7.847296    45.270615    37.585201    15.750163    -0.008864    -9.667278    51.837234    -29.835745    -13.747927    15.559793    20.267645    -16.474510    16.968666    -15.361821    34.263145    6.091089    1.874412    -12.757782    21.007862    0.000000    0.000000    0.000000    -13.069716    -16.585991    -15.419117    -0.497144    21.885868    13.241099    14.930358    5.371633    33.254715    0.000000    0.000000    0.000000    
0.063513    0.844384    -0.989926    -3.062566    -3.462998    -67.849640    -3.692350    2.709001    -9.222286    -6.935410    8.855266    -2.565485    10.341846    21.015961    22.184313    -18.201151    -9.663923    19.611376    -3.301643    21.116999    -14.675920    -4.978448    21.991858    -45.713097    25.281427    21.610737    -57.081791    40.390152    25.095812    -27.267672    4.914662    23.626284    7.682020    45.044010    37.860889    15.959951    -0.529098    -9.730459    51.683296    -29.177097    -13.453230    15.488220    20.295765    -16.446772    17.034054    -15.350694    34.293098    6.119635    1.873938    -12.720594    20.967606    0.000000    0.000000    0.000000    -13.099591    -16.674517    -15.353341    -0.459529    22.040148    13.368890    14.930358    5.371633    33.254715    0.000000    0.000000    0.000000    
